<mxfile host="65bd71144e">
    <diagram id="pIaEtrtLPv3HG8r1JEND" name="Page-1">
        <mxGraphModel dx="955" dy="727" grid="1" gridSize="10" guides="1" tooltips="1" connect="1" arrows="1" fold="1" page="1" pageScale="1" pageWidth="850" pageHeight="1100" math="0" shadow="0">
            <root>
                <mxCell id="0"/>
                <mxCell id="1" parent="0"/>
                <mxCell id="2" value="" style="rounded=0;whiteSpace=wrap;html=1;" parent="1" vertex="1">
                    <mxGeometry x="80" y="80" width="740" height="480" as="geometry"/>
                </mxCell>
                <mxCell id="3" value="Division Calculator" style="rounded=0;whiteSpace=wrap;html=1;" parent="1" vertex="1">
                    <mxGeometry x="80" y="80" width="740" height="40" as="geometry"/>
                </mxCell>
                <mxCell id="4" value="Value B" style="shape=partialRectangle;whiteSpace=wrap;html=1;top=0;left=0;fillColor=none;align=left;" parent="1" vertex="1">
                    <mxGeometry x="110" y="290" width="120" height="20" as="geometry"/>
                </mxCell>
                <mxCell id="6" value="Calculate" style="labelPosition=center;verticalLabelPosition=middle;align=center;html=1;shape=mxgraph.basic.button;dx=10;" parent="1" vertex="1">
                    <mxGeometry x="110" y="340" width="100" height="40" as="geometry"/>
                </mxCell>
                <mxCell id="7" value="Value A...." style="shape=partialRectangle;whiteSpace=wrap;html=1;top=0;left=0;fillColor=none;align=left;" vertex="1" parent="1">
                    <mxGeometry x="110" y="240" width="120" height="20" as="geometry"/>
                </mxCell>
                <mxCell id="8" value="This program does division.&amp;nbsp;&amp;nbsp;" style="text;html=1;strokeColor=none;fillColor=none;align=left;verticalAlign=middle;whiteSpace=wrap;rounded=0;" vertex="1" parent="1">
                    <mxGeometry x="110" y="140" width="700" height="30" as="geometry"/>
                </mxCell>
                <mxCell id="9" value="Formula:&amp;nbsp; a / b = c" style="text;html=1;strokeColor=none;fillColor=none;align=left;verticalAlign=middle;whiteSpace=wrap;rounded=0;" vertex="1" parent="1">
                    <mxGeometry x="110" y="180" width="700" height="30" as="geometry"/>
                </mxCell>
                <mxCell id="10" value="Output quotient" style="text;html=1;strokeColor=none;fillColor=none;align=left;verticalAlign=middle;whiteSpace=wrap;rounded=0;" vertex="1" parent="1">
                    <mxGeometry x="110" y="410" width="700" height="30" as="geometry"/>
                </mxCell>
            </root>
        </mxGraphModel>
    </diagram>
</mxfile>